<svg xmlns="http://www.w3.org/2000/svg" width="114" height="24" viewBox="0 0 114 24" fill="none">
<path d="M11.4346 11.4831L22.8692 0H4.52237L0 4.54154V12.7015L6.32396 6.35077L7.37183 7.40308L0 14.8062V19.4769L4.52237 24H9.15504L16.5269 16.5969L17.5747 17.6492L11.2508 24H19.3947L23.8987 19.4769V1.05231L12.4825 12.5354L11.4346 11.4831Z" fill="#8060FF"/>
<path d="M43.5508 3.15674H42.0433H39.727L38.8446 9.06443L37.9438 3.15674H35.6274H34.1384H30.9764L29.5792 20.8429H34.2303L35.0943 9.98751L36.6018 20.8429H37.0614H40.6278H41.069L42.5948 9.98751L43.4588 20.8429H48.1099L46.6944 3.15674H43.5508Z" fill="#EBF0E6"/>
<path d="M70.5196 3.15674H65.8134V15.8952V20.8429H70.5196H80.8879V15.8952H70.5196V3.15674Z" fill="#EBF0E6"/>
<path d="M84.5645 3.15674H82.2114V15.8952V20.8429H86.9176H97.286V15.8952H86.9176V14.4737H97.286V9.52597H86.9176V8.12289H97.286V3.15674H86.9176H84.5645Z" fill="#EBF0E6"/>
<path d="M51.7683 3.15674H49.4152V15.8952V20.8429H54.1214H64.5081V15.8952H54.1214V14.4737H64.5081V9.52597H54.1214V8.12289H64.5081V3.15674H54.1214H51.7683Z" fill="#EBF0E6"/>
<path d="M113.684 8.12289V3.15674H103.297H100.963H98.6096V15.8952V20.8429H103.297H113.684V15.8952H103.297V14.4737H113.684V9.52597H103.297V8.12289H113.684Z" fill="#EBF0E6"/>
</svg>